# xmcd
# Track frame offsets:
# 150
# 12966
# 24298
# 38021
# 47791
# 58744
# 70737
# 81056
# 94391
# 105330
# 115990
# 126867
# 138258
# 148619
# 158756
# 169225
# 181502
# 192564
# 201569
# 214268
#
# Disc length: 3032 seconds
# Revision: 0
# Processed by: cddbd v1.5.2PL0 Copyright (c) Steve Scherf et al.
# Submitted via: VisiTrax 2.11.3.279 - For more info visit www.synapsa.com
#
DISCID=190bd614
DTITLE=Various (1930s-1950s) Rock n Roll and Blues and Jazz Artists - Roots Of Ro
DTITLE=ck and Roll: Rough And Rowdy: CD8 of 10: *ReMastered Tracks
DYEAR=2014
DGENRE=Rock n Roll
TTITLE0=Roy Milton and His Solid Senders - Milton's Boogie*
TTITLE1=Jackie Brenston and Billy Love - Juiced*
TTITLE2=Big Joe Turner - Low Down Dog*
TTITLE3=H-Bomb Ferguson - Rock, H-Bomb, Rock*
TTITLE4=Melvin Smith - I'm Out Of My Mind*
TTITLE5=Varetta Dillard - Easy, Easy Baby*
TTITLE6=Big Maybelle - Ring Dang Dilly*
TTITLE7=Hal Singer Sextet - Corn Bread*
TTITLE8=Marie Adams and The Three Tons Of Joy - Ma (He's Making Eyes At Me)* [Li
TTITLE8=ve]
TTITLE9=Pearl Baily - I Can't Rock and Roll To Save My Soul*
TTITLE10=Boo Breeding - Country Woman*
TTITLE11=Roy Byrd and His Blues Jumpers - Bald Head*
TTITLE12=Plas Johnson and His Orchestra - Blue Jean Shuffle*
TTITLE13=Sparkle Moore - Rock-A-Bop*
TTITLE14=Vince Monroe - Give It Up*
TTITLE15=Lowell Fulson - Rocking After Midnight*
TTITLE16=Smiley Lewis - She,s Got Me Hook, Line And Sinker*
TTITLE17=Professor Longhair - Misery*
TTITLE18=Rufus Thomas - Tiger Man*
TTITLE19=Donna Hightower - Hands Off*
EXTD=Compilation and ReMastering: Documents/The Intense Media: 2014
EXTT0=
EXTT1=
EXTT2=
EXTT3=
EXTT4=
EXTT5=
EXTT6=
EXTT7=
EXTT8=
EXTT9=
EXTT10=
EXTT11=
EXTT12=
EXTT13=
EXTT14=
EXTT15=
EXTT16=
EXTT17=
EXTT18=
EXTT19=
PLAYORDER=
